<svg xmlns="http://www.w3.org/2000/svg" width="14" height="14" viewBox="0 0 14 14">
  <g id="그룹_2717" data-name="그룹 2717" transform="translate(-1798 213)">
    <g id="그룹_3368" data-name="그룹 3368">
      <g id="question-mark" transform="translate(1802.92 -209.328)">
        <path id="패스_9" data-name="패스 9" d="M396.03,788.2h-.325a.415.415,0,0,0-.415.415v.449a.415.415,0,0,0,.415.415h.325a.415.415,0,0,0,.415-.415v-.449A.415.415,0,0,0,396.03,788.2Z" transform="translate(-393.833 -782.823)" fill="#aeb2bb"/>
        <path id="패스_10" data-name="패스 10" d="M142.781,1.947l.524.074a.361.361,0,0,0,.384-.261A1.276,1.276,0,0,1,144,1.233a1,1,0,0,1,.713-.272.952.952,0,0,1,.7.261.855.855,0,0,1,.261.627.846.846,0,0,1-.147.482,5.111,5.111,0,0,1-.585.585,2.693,2.693,0,0,0-.652.8,2.059,2.059,0,0,0-.16.785.39.39,0,0,0,.363.426h.3a.384.384,0,0,0,.362-.374,1.142,1.142,0,0,1,.068-.345,1.858,1.858,0,0,1,.44-.532,4.914,4.914,0,0,0,.894-1.01,1.581,1.581,0,0,0,.209-.787A1.8,1.8,0,0,0,146.2.566,2.072,2.072,0,0,0,144.671,0a1.989,1.989,0,0,0-2.058,1.686A.218.218,0,0,0,142.781,1.947Z" transform="translate(-142.61 0)" fill="#aeb2bb"/>
      </g>
      <g id="그룹_19" data-name="그룹 19" transform="translate(1798 -213)">
        <g id="그룹_13" data-name="그룹 13" transform="translate(0)">
          <g id="information">
            <g id="그룹_7" data-name="그룹 7">
              <g id="그룹_6" data-name="그룹 6">
                <path id="패스_19" data-name="패스 19" d="M7,0a7,7,0,1,0,7,7A7,7,0,0,0,7,0ZM7,13.067A6.067,6.067,0,1,1,13.067,7,6.074,6.074,0,0,1,7,13.067Z" fill="#aeb2bb"/>
              </g>
            </g>
          </g>
        </g>
      </g>
    </g>
  </g>
</svg>
